<svg width="100" height="122" viewBox="0 0 100 122" fill="none" xmlns="http://www.w3.org/2000/svg">
<path d="M8.096 119.112C6.78 119.112 5.78133 118.771 5.1 118.09C4.41867 117.409 4.078 116.405 4.078 115.08V109.13H5.506V115.178C5.506 116.083 5.72067 116.769 6.15 117.236C6.58867 117.703 7.23733 117.936 8.096 117.936C8.94533 117.936 9.58933 117.703 10.028 117.236C10.4667 116.769 10.686 116.083 10.686 115.178V109.13H12.114V115.08C12.114 116.396 11.7687 117.399 11.078 118.09C10.3967 118.771 9.40267 119.112 8.096 119.112ZM18.372 112C18.96 112 19.4827 112.149 19.94 112.448C20.4067 112.747 20.766 113.167 21.018 113.708C21.2793 114.249 21.41 114.875 21.41 115.584C21.41 116.284 21.284 116.9 21.032 117.432C20.78 117.964 20.4207 118.375 19.954 118.664C19.4967 118.953 18.9693 119.098 18.372 119.098C17.8587 119.098 17.406 118.991 17.014 118.776C16.622 118.552 16.3233 118.235 16.118 117.824V121.52H14.704V112.168H16.118V113.288C16.3233 112.877 16.622 112.56 17.014 112.336C17.406 112.112 17.8587 112 18.372 112ZM18.036 117.978C18.652 117.978 19.128 117.773 19.464 117.362C19.8 116.942 19.968 116.349 19.968 115.584C19.968 114.809 19.7953 114.207 19.45 113.778C19.114 113.349 18.6427 113.134 18.036 113.134C17.42 113.134 16.944 113.344 16.608 113.764C16.2813 114.184 16.118 114.781 16.118 115.556C16.118 116.331 16.2813 116.928 16.608 117.348C16.944 117.768 17.42 117.978 18.036 117.978ZM23.514 119V109.13H24.928V119H23.514ZM30.411 119.098C29.739 119.098 29.1464 118.953 28.633 118.664C28.129 118.375 27.737 117.964 27.457 117.432C27.1864 116.891 27.051 116.265 27.051 115.556C27.051 114.837 27.1864 114.212 27.457 113.68C27.737 113.139 28.129 112.723 28.633 112.434C29.1464 112.145 29.739 112 30.411 112C31.083 112 31.671 112.145 32.175 112.434C32.6884 112.723 33.0804 113.139 33.351 113.68C33.631 114.212 33.771 114.837 33.771 115.556C33.771 116.265 33.631 116.891 33.351 117.432C33.0804 117.964 32.6884 118.375 32.175 118.664C31.671 118.953 31.083 119.098 30.411 119.098ZM30.411 117.978C31.0364 117.978 31.5124 117.773 31.839 117.362C32.175 116.951 32.343 116.349 32.343 115.556C32.343 114.772 32.175 114.175 31.839 113.764C31.503 113.344 31.027 113.134 30.411 113.134C29.795 113.134 29.319 113.344 28.983 113.764C28.647 114.175 28.479 114.772 28.479 115.556C28.479 116.349 28.6424 116.951 28.969 117.362C29.305 117.773 29.7857 117.978 30.411 117.978ZM38.7398 112C39.6545 112 40.3312 112.229 40.7698 112.686C41.2178 113.143 41.4418 113.839 41.4418 114.772V119H40.0838V117.866C39.9065 118.267 39.6405 118.575 39.2858 118.79C38.9405 118.995 38.5345 119.098 38.0678 119.098C37.6198 119.098 37.2092 119.009 36.8358 118.832C36.4625 118.645 36.1685 118.389 35.9538 118.062C35.7485 117.735 35.6458 117.371 35.6458 116.97C35.6458 116.475 35.7718 116.088 36.0238 115.808C36.2852 115.519 36.7098 115.313 37.2978 115.192C37.8952 115.071 38.7118 115.01 39.7478 115.01H40.0698V114.604C40.0698 114.081 39.9578 113.703 39.7338 113.47C39.5192 113.237 39.1645 113.12 38.6698 113.12C37.8952 113.12 37.1205 113.358 36.3458 113.834L35.9258 112.84C36.2898 112.588 36.7285 112.387 37.2418 112.238C37.7645 112.079 38.2638 112 38.7398 112ZM38.3198 118.048C38.8332 118.048 39.2532 117.875 39.5798 117.53C39.9065 117.175 40.0698 116.723 40.0698 116.172V115.808H39.8178C39.0898 115.808 38.5298 115.841 38.1378 115.906C37.7458 115.971 37.4658 116.083 37.2978 116.242C37.1298 116.391 37.0458 116.611 37.0458 116.9C37.0458 117.227 37.1625 117.502 37.3958 117.726C37.6385 117.941 37.9465 118.048 38.3198 118.048ZM50.2145 109.13V119H48.8145V117.824C48.6092 118.235 48.3105 118.552 47.9185 118.776C47.5265 118.991 47.0738 119.098 46.5605 119.098C45.9725 119.098 45.4452 118.949 44.9785 118.65C44.5212 118.351 44.1618 117.931 43.9005 117.39C43.6485 116.849 43.5225 116.228 43.5225 115.528C43.5225 114.819 43.6485 114.198 43.9005 113.666C44.1618 113.134 44.5212 112.723 44.9785 112.434C45.4358 112.145 45.9632 112 46.5605 112C47.0738 112 47.5218 112.112 47.9045 112.336C48.2965 112.551 48.5952 112.859 48.8005 113.26V109.13H50.2145ZM46.8965 117.978C47.5125 117.978 47.9838 117.768 48.3105 117.348C48.6465 116.928 48.8145 116.331 48.8145 115.556C48.8145 114.781 48.6465 114.184 48.3105 113.764C47.9838 113.344 47.5125 113.134 46.8965 113.134C46.2805 113.134 45.7998 113.344 45.4545 113.764C45.1185 114.175 44.9505 114.763 44.9505 115.528C44.9505 116.293 45.1232 116.895 45.4685 117.334C45.8138 117.763 46.2898 117.978 46.8965 117.978ZM57.1223 109.13H61.2103C62.2556 109.13 63.0676 109.387 63.6463 109.9C64.225 110.413 64.5143 111.141 64.5143 112.084C64.5143 113.017 64.225 113.745 63.6463 114.268C63.0676 114.791 62.2556 115.052 61.2103 115.052H58.5643V119H57.1223V109.13ZM61.0563 113.89C62.4376 113.89 63.1283 113.288 63.1283 112.084C63.1283 110.889 62.4376 110.292 61.0563 110.292H58.5643V113.89H61.0563ZM70.3076 112C71.9409 112 72.7576 112.919 72.7576 114.758V119H71.3436V114.828C71.3436 114.249 71.2269 113.825 70.9936 113.554C70.7696 113.283 70.4149 113.148 69.9296 113.148C69.3603 113.148 68.9029 113.325 68.5576 113.68C68.2123 114.035 68.0396 114.511 68.0396 115.108V119H66.6256V109.13H68.0396V113.204C68.2729 112.812 68.5856 112.513 68.9776 112.308C69.3696 112.103 69.8129 112 70.3076 112ZM78.1985 119.098C77.5265 119.098 76.9338 118.953 76.4205 118.664C75.9165 118.375 75.5245 117.964 75.2445 117.432C74.9738 116.891 74.8385 116.265 74.8385 115.556C74.8385 114.837 74.9738 114.212 75.2445 113.68C75.5245 113.139 75.9165 112.723 76.4205 112.434C76.9338 112.145 77.5265 112 78.1985 112C78.8705 112 79.4585 112.145 79.9625 112.434C80.4758 112.723 80.8678 113.139 81.1385 113.68C81.4185 114.212 81.5585 114.837 81.5585 115.556C81.5585 116.265 81.4185 116.891 81.1385 117.432C80.8678 117.964 80.4758 118.375 79.9625 118.664C79.4585 118.953 78.8705 119.098 78.1985 119.098ZM78.1985 117.978C78.8238 117.978 79.2998 117.773 79.6265 117.362C79.9625 116.951 80.1305 116.349 80.1305 115.556C80.1305 114.772 79.9625 114.175 79.6265 113.764C79.2905 113.344 78.8145 113.134 78.1985 113.134C77.5825 113.134 77.1065 113.344 76.7705 113.764C76.4345 114.175 76.2665 114.772 76.2665 115.556C76.2665 116.349 76.4298 116.951 76.7565 117.362C77.0925 117.773 77.5731 117.978 78.1985 117.978ZM86.8779 118.006C87.0926 118.006 87.3026 117.992 87.5079 117.964L87.4379 119.042C87.2046 119.079 86.9619 119.098 86.7099 119.098C85.8232 119.098 85.1606 118.883 84.7219 118.454C84.2926 118.015 84.0779 117.385 84.0779 116.564V113.26H82.7479V112.168H84.0779V110.11H85.4919V112.168H87.3679V113.26H85.4919V116.508C85.4919 117.507 85.9539 118.006 86.8779 118.006ZM92.0859 119.098C91.4139 119.098 90.8212 118.953 90.3079 118.664C89.8039 118.375 89.4119 117.964 89.1319 117.432C88.8612 116.891 88.7259 116.265 88.7259 115.556C88.7259 114.837 88.8612 114.212 89.1319 113.68C89.4119 113.139 89.8039 112.723 90.3079 112.434C90.8212 112.145 91.4139 112 92.0859 112C92.7579 112 93.3459 112.145 93.8499 112.434C94.3633 112.723 94.7553 113.139 95.0259 113.68C95.3059 114.212 95.4459 114.837 95.4459 115.556C95.4459 116.265 95.3059 116.891 95.0259 117.432C94.7553 117.964 94.3633 118.375 93.8499 118.664C93.3459 118.953 92.7579 119.098 92.0859 119.098ZM92.0859 117.978C92.7112 117.978 93.1872 117.773 93.5139 117.362C93.8499 116.951 94.0179 116.349 94.0179 115.556C94.0179 114.772 93.8499 114.175 93.5139 113.764C93.1779 113.344 92.7019 113.134 92.0859 113.134C91.4699 113.134 90.9939 113.344 90.6579 113.764C90.3219 114.175 90.1539 114.772 90.1539 115.556C90.1539 116.349 90.3173 116.951 90.6439 117.362C90.9799 117.773 91.4606 117.978 92.0859 117.978Z" fill="#4379EE"/>
<g filter="url(#filter0_d_0_358)">
<path fill-rule="evenodd" clip-rule="evenodd" d="M50 90C72.0914 90 90 72.0914 90 50C90 27.9086 72.0914 10 50 10C27.9086 10 10 27.9086 10 50C10 72.0914 27.9086 90 50 90Z" fill="#ECECEE"/>
</g>
<path fill-rule="evenodd" clip-rule="evenodd" d="M61.7813 60.8H38.2187C37.5455 60.8 37 60.2629 37 59.6V44.8919C37 44.2294 37.5455 43.6919 38.2187 43.6919H43.4238L45.3757 40.4785C45.5983 40.1895 45.947 40 46.3438 40H53.6562C53.9986 40 54.3065 40.1402 54.5283 40.3637L54.5291 40.3625L56.5988 43.6919H61.7813C62.4545 43.6919 63 44.2294 63 44.8919V59.6C63 60.2629 62.4545 60.8 61.7813 60.8ZM50 46.1532C46.4445 46.1532 43.5623 48.9914 43.5623 52.4919C43.5623 55.9928 46.4445 58.8306 50 58.8306C53.5556 58.8306 56.4378 55.9928 56.4378 52.4919C56.4378 48.9914 53.5556 46.1532 50 46.1532ZM46.2743 52.4919C46.2743 54.5178 47.9425 56.1604 50 56.1604C52.0578 56.1604 53.7257 54.5178 53.7257 52.4919C53.7257 50.4658 52.0578 48.8235 50 48.8235C47.9425 48.8235 46.2743 50.4658 46.2743 52.4919Z" fill="#414141"/>
<mask id="mask0_0_358" style="mask-type:luminance" maskUnits="userSpaceOnUse" x="37" y="40" width="26" height="21">
<path fill-rule="evenodd" clip-rule="evenodd" d="M61.7813 60.8H38.2187C37.5455 60.8 37 60.2629 37 59.6V44.8919C37 44.2294 37.5455 43.6919 38.2187 43.6919H43.4238L45.3757 40.4785C45.5983 40.1895 45.947 40 46.3438 40H53.6562C53.9986 40 54.3065 40.1402 54.5283 40.3637L54.5291 40.3625L56.5988 43.6919H61.7813C62.4545 43.6919 63 44.2294 63 44.8919V59.6C63 60.2629 62.4545 60.8 61.7813 60.8ZM50 46.1532C46.4445 46.1532 43.5623 48.9914 43.5623 52.4919C43.5623 55.9928 46.4445 58.8306 50 58.8306C53.5556 58.8306 56.4378 55.9928 56.4378 52.4919C56.4378 48.9914 53.5556 46.1532 50 46.1532ZM46.2743 52.4919C46.2743 54.5178 47.9425 56.1604 50 56.1604C52.0578 56.1604 53.7257 54.5178 53.7257 52.4919C53.7257 50.4658 52.0578 48.8235 50 48.8235C47.9425 48.8235 46.2743 50.4658 46.2743 52.4919Z" fill="white"/>
</mask>
<g mask="url(#mask0_0_358)">
</g>
<defs>
<filter id="filter0_d_0_358" x="0" y="0" width="100" height="100" filterUnits="userSpaceOnUse" color-interpolation-filters="sRGB">
<feFlood flood-opacity="0" result="BackgroundImageFix"/>
<feColorMatrix in="SourceAlpha" type="matrix" values="0 0 0 0 0 0 0 0 0 0 0 0 0 0 0 0 0 0 127 0" result="hardAlpha"/>
<feOffset/>
<feGaussianBlur stdDeviation="5"/>
<feColorMatrix type="matrix" values="0 0 0 0 0 0 0 0 0 0 0 0 0 0 0 0 0 0 0.01 0"/>
<feBlend mode="normal" in2="BackgroundImageFix" result="effect1_dropShadow_0_358"/>
<feBlend mode="normal" in="SourceGraphic" in2="effect1_dropShadow_0_358" result="shape"/>
</filter>
</defs>
</svg>