<svg width="16" height="16" viewBox="0 0 16 16" fill="none" xmlns="http://www.w3.org/2000/svg">
<path d="M0 0H0.6875H3.4375H4.125V0.6875V3.4375V4.125H3.4375H0.6875H0V3.4375V0.6875V0ZM1.375 1.375V2.75H2.75V1.375H1.375ZM5.5 1.375H15.8125V2.75H5.5V1.375ZM0 5.5H0.6875H3.4375H4.125V6.1875V8.9375V9.625H3.4375H0.6875H0V8.9375V6.1875V5.5ZM1.375 6.875V8.25H2.75V6.875H1.375ZM5.5 6.875H15.8125V8.25H5.5V6.875ZM0 11H0.6875H3.4375H4.125V11.6875V14.4375V15.125H3.4375H0.6875H0V14.4375V11.6875V11ZM1.375 12.375V13.75H2.75V12.375H1.375ZM5.5 12.375H15.8125V13.75H5.5V12.375Z" fill="#202224"/>
</svg>
